<svg width="24" height="24" viewBox="0 0 24 24" fill="none" xmlns="http://www.w3.org/2000/svg">
<path d="M12.4066 4.09375L18.2816 6.59375C18.9691 6.90625 19.5003 7.5625 19.5003 8.375C19.4691 11.5 18.1878 17.1562 12.8128 19.75C12.2816 20 11.6878 20 11.1566 19.75C5.78158 17.1562 4.50033 11.5 4.50033 8.375C4.46908 7.5625 5.00033 6.90625 5.68783 6.59375L11.5628 4.09375C11.6878 4.03125 11.8441 4 12.0003 4C12.1253 4 12.2816 4.03125 12.4066 4.09375ZM15.5316 10.5312H15.5003C15.8128 10.25 15.8128 9.78125 15.5003 9.46875C15.2191 9.1875 14.7503 9.1875 14.4691 9.46875L11.0003 12.9688L9.53158 11.5C9.21908 11.1875 8.75033 11.1875 8.46908 11.5C8.15658 11.7812 8.15658 12.25 8.46908 12.5312L10.4691 14.5312C10.7503 14.8438 11.2191 14.8438 11.5316 14.5312L15.5316 10.5312Z" fill="#005DB1"/>
</svg>
