<svg width="24" height="24" viewBox="0 0 24 24" fill="none" xmlns="http://www.w3.org/2000/svg">
<path d="M6.09581 12.1081C6.08069 12.054 6.12017 11.9998 6.17646 11.9998H7.14503C7.19543 11.9998 7.23492 11.955 7.2282 11.9051L7.08623 10.7546C7.08119 10.7123 7.04507 10.6802 7.00306 10.6802H2.48446C2.42313 10.6802 2.38281 10.7436 2.40801 10.7995L5.8858 18.5499C5.89924 18.5804 5.92948 18.5998 5.96225 18.5998H7.90359C7.93131 18.5998 7.95147 18.5728 7.94391 18.5457L6.09581 12.1081Z" fill="#005DB1"/>
<path d="M11.908 9.44696C11.9055 9.39874 11.9433 9.35729 11.992 9.35729H13.3369C13.3806 9.35729 13.4167 9.32346 13.4209 9.28031L13.5184 8.13322C13.5226 8.08416 13.4839 8.04102 13.4344 8.04102H7.82455C7.77499 8.04102 7.73635 8.08416 7.74055 8.13407L8.757 18.523C8.7612 18.5662 8.79732 18.5992 8.84101 18.5992L12.323 18.5958C12.3709 18.5958 12.4095 18.5552 12.407 18.5061L11.9089 9.44612L11.908 9.44696Z" fill="#005DB1"/>
<path d="M14.8141 5.3999H21.516C21.5715 5.3999 21.6118 5.4532 21.5967 5.50734L17.9811 18.5373C17.971 18.5737 17.9383 18.5991 17.9005 18.5991H13.3533C13.3029 18.5991 13.2642 18.5551 13.2701 18.5052L14.731 5.47519C14.736 5.43205 14.7713 5.3999 14.8141 5.3999Z" fill="#005DB1"/>
</svg>
